<svg width="17" height="16" viewBox="0 0 17 16" fill="none" xmlns="http://www.w3.org/2000/svg">
<path d="M9.76644 15.5069C9.76644 13.5237 9.76644 11.4943 9.76644 9.46498C10.3828 9.46498 10.9992 9.46498 11.663 9.46498C11.7578 8.72703 11.8526 8.03524 11.9475 7.2973C11.1888 7.2973 10.5251 7.2973 9.76644 7.2973C9.76644 6.69772 9.71903 6.09812 9.76644 5.54466C9.81386 5.17569 10.0983 4.94513 10.4776 4.89901C10.9518 4.89901 11.4733 4.89901 11.9475 4.89901C11.9475 4.20719 11.9475 3.56147 11.9475 2.91577C10.9992 2.86965 10.0509 2.73131 9.10267 3.05416C8.01215 3.42313 7.4906 4.25331 7.44319 5.36022C7.39578 6.00592 7.44319 6.6516 7.44319 7.2973C6.7794 7.2973 6.21043 7.2973 5.54664 7.2973C5.54664 8.03524 5.54664 8.72708 5.54664 9.51114C6.16302 9.51114 6.77938 9.51114 7.39576 9.51114C7.39576 11.5405 7.39576 13.5237 7.39576 15.4607C4.69318 15.6452 1.18459 12.0479 0.805276 8.86549C0.283726 4.48396 3.50786 0.471339 8.1544 0.14849C12.5165 -0.17436 16.1673 2.86969 16.6888 6.88225C17.3052 11.5866 13.607 15.1379 9.76644 15.5069Z" fill="white"/>
</svg>
