<svg width="17" height="16" viewBox="0 0 17 16" fill="none" xmlns="http://www.w3.org/2000/svg">
<path d="M0.125 7.89371C0.125 3.60317 3.60317 0.125 7.89371 0.125H8.47497C12.7655 0.125 16.2437 3.60317 16.2437 7.89371C16.2437 12.1843 12.7655 15.6624 8.47497 15.6624H7.89371C3.60317 15.6624 0.125 12.1843 0.125 7.89371Z" fill="white"/>
<rect x="4.08481" y="4.08591" width="8.19763" height="7.92104" rx="1.21862" stroke="black" stroke-width="0.609311"/>
<path d="M9.84435 8.04571C9.84435 8.86645 9.12175 9.56898 8.18278 9.56898C7.24381 9.56898 6.52121 8.86645 6.52121 8.04571C6.52121 7.22497 7.24381 6.52243 8.18278 6.52243C9.12175 6.52243 9.84435 7.22497 9.84435 8.04571Z" stroke="black" stroke-width="0.609311"/>
<ellipse cx="10.4694" cy="5.76205" rx="0.595773" ry="0.457364" fill="black"/>
</svg>
