<svg width="27" height="22" viewBox="0 0 27 22" fill="none" xmlns="http://www.w3.org/2000/svg">
<path d="M22.1603 0.662891C22.1082 0.692757 20.028 2.89433 16.342 6.81962C13.1846 10.1817 10.5938 12.9294 10.5817 12.9252C10.5697 12.9209 9.3424 11.6878 7.85279 10.186C6.36317 8.68413 5.11782 7.43401 5.08379 7.40628C4.99769 7.33802 4.89959 7.31455 4.80348 7.33802C4.62129 7.38068 4.56322 7.42335 4.30094 7.71134C4.15878 7.86921 3.31988 8.78013 2.43892 9.73799C1.44785 10.8153 0.82117 11.5129 0.79314 11.5684C0.769114 11.6174 0.749092 11.6772 0.74709 11.7006C0.745088 11.8265 0.891246 11.9822 3.74033 14.8601C6.21701 17.3624 6.85971 18.0259 8.50549 19.7731C10.1733 21.5459 10.4196 21.7997 10.5037 21.8317L10.5998 21.8701L10.6738 21.8104C10.7139 21.7784 10.9461 21.5437 11.1884 21.2899C11.4307 21.036 12.2876 20.14 13.0905 19.2995C13.8953 18.459 17.1889 14.9667 20.4144 11.5364C25.612 6.0047 26.2807 5.2879 26.3248 5.18337C26.3849 5.04044 26.3869 5.00204 26.3348 4.86978C26.2988 4.78444 25.9824 4.43671 24.4067 2.75567C22.5587 0.784489 22.3925 0.618092 22.2804 0.620224C22.2584 0.620224 22.2043 0.639425 22.1603 0.662891Z" fill="black"/>
</svg>
