<svg width="15" height="17" viewBox="0 0 15 17" fill="none" xmlns="http://www.w3.org/2000/svg">
<path d="M12.4375 7.625H11.9375V5.4375C11.9375 2.9375 9.93747 0.875 7.37497 0.875H6.56247C4.06247 0.875 1.99997 2.875 1.99997 5.4375V7.625C1.06247 7.625 0.249969 8.4375 0.249969 9.375V14.875C0.249969 15.8125 1.06247 16.625 1.99997 16.625H12.4375C13.375 16.625 14.1875 15.8125 14.1875 14.875V9.375C14.1875 8.4375 13.4375 7.625 12.4375 7.625ZM4.31247 5.8125C4.31247 5.0625 4.62497 4.375 5.12497 3.875C5.62497 3.375 6.31247 3.0625 7.06247 3.0625C8.56247 3.0625 9.74997 4.25 9.74997 5.75V7.5625H4.31247V5.8125Z" fill="#495057"/>
</svg>
