<svg width="28" height="27" viewBox="0 0 28 27" fill="none" xmlns="http://www.w3.org/2000/svg">
<path d="M20.421 0.110004C19.1332 0.158234 17.8765 0.518753 16.7589 1.16051C15.6414 1.80228 14.6967 2.70605 14.006 3.794C13.3407 2.67667 12.4056 1.74424 11.2864 1.08224C10.1671 0.420227 8.89958 0.0498269 7.59998 0.00500488C3.85398 0.00500488 0.0419832 3.292 -1.6836e-05 9.58C-0.0400168 15.58 5.20898 19.218 8.03698 21.18C10.198 22.68 12.646 24.374 12.856 25.129C12.9292 25.3838 13.0838 25.6078 13.2961 25.7666C13.5084 25.9255 13.7668 26.0106 14.032 26.009C14.2982 26.0051 14.5556 25.9128 14.7636 25.7467C14.9716 25.5805 15.1184 25.3498 15.181 25.091C15.31 24.554 17.438 22.991 18.714 22.047C19.134 21.736 19.572 21.414 20.023 21.077L20.452 20.756C23.472 18.504 28.034 15.101 27.998 9.527C27.958 3.056 24.042 0.110004 20.421 0.110004Z" fill="#FF0000"/>
</svg>
