<svg width="25" height="27" viewBox="0 0 25 27" fill="none" xmlns="http://www.w3.org/2000/svg">
<path d="M25 13.675C25.025 9.90601 22.087 8.06801 19.494 6.44701L19.463 6.42801C18.897 6.07301 18.363 5.73701 17.891 5.39901C15.63 3.77201 13.649 1.22601 13.418 0.305008C13.3932 0.218064 13.341 0.141426 13.2692 0.0864357C13.1974 0.0314457 13.1099 0.00102654 13.0195 -0.000319533C12.929 -0.00166561 12.8406 0.0261329 12.7672 0.0789617C12.6938 0.13179 12.6394 0.206842 12.612 0.293008C11.6056 2.35515 10.053 4.10182 8.123 5.34301C7.723 5.60901 7.295 5.86901 6.798 6.17101C4.203 7.74801 0.973997 9.71101 0.997997 13.628C1.03 18.474 4.098 20.68 6.939 20.68C7.8911 20.6607 8.82784 20.4363 9.68536 20.0222C10.5429 19.608 11.301 19.0138 11.908 18.28C11.336 20.907 9.593 24.173 4.636 25.429C4.54044 25.4524 4.45664 25.5097 4.40018 25.5903C4.34371 25.6709 4.31842 25.7692 4.329 25.867C4.34486 25.9651 4.39555 26.0542 4.47178 26.1179C4.548 26.1816 4.64465 26.2158 4.744 26.214H21.262C21.3156 26.2152 21.3689 26.2058 21.4189 26.1863C21.4689 26.1668 21.5145 26.1377 21.5532 26.1005C21.5918 26.0633 21.6227 26.0189 21.6442 25.9697C21.6656 25.9205 21.6771 25.8676 21.678 25.814C21.6786 25.7221 21.6469 25.6329 21.5884 25.5619C21.5299 25.491 21.4484 25.4429 21.358 25.426C19.7265 24.8821 18.2447 23.9646 17.0307 22.7464C15.8168 21.5283 14.9043 20.0433 14.366 18.41C14.9884 19.0582 15.733 19.5767 16.5568 19.9356C17.3807 20.2945 18.2675 20.4867 19.166 20.501C22.047 20.499 24.966 18.388 25 13.675Z" fill="black"/>
</svg>
