<svg width="24" height="24" viewBox="0 0 24 24" fill="none" xmlns="http://www.w3.org/2000/svg">
<path d="M24 13.059C23.9742 11.4477 23.322 9.90975 22.1816 8.77107C21.0413 7.63239 19.5024 6.98246 17.891 6.95901C17.9312 6.67645 17.9516 6.39142 17.952 6.10601C17.9304 4.46796 17.2601 2.90533 16.0881 1.76072C14.9161 0.616104 13.3381 -0.0170711 11.7 1.46855e-05C10.0623 -0.0181462 8.48427 0.613766 7.31175 1.75723C6.13923 2.90069 5.46793 4.4624 5.445 6.10001C5.44503 6.50031 5.48489 6.89961 5.564 7.29202C4.05557 7.44999 2.65705 8.15436 1.63212 9.27232C0.607188 10.3903 0.026664 11.8446 0 13.361C0.0234537 14.9988 0.695197 16.5605 1.86803 17.7039C3.04087 18.8473 4.61914 19.4792 6.257 19.461C7.18053 19.4618 8.09312 19.2612 8.93124 18.8733C9.76936 18.4854 10.5129 17.9195 11.11 17.215C10.7996 18.714 10.0562 20.089 8.97191 21.1696C7.88761 22.2501 6.51007 22.9888 5.01 23.294L4.838 23.34L4.926 23.999H19.188L19.265 23.334L19.092 23.294C17.6642 22.867 16.369 22.0826 15.329 21.0151C14.289 19.9477 13.5387 18.6325 13.149 17.194C13.7449 17.8131 14.4592 18.306 15.2495 18.6434C16.0397 18.9808 16.8897 19.1558 17.749 19.158C19.3858 19.1751 20.9627 18.5429 22.1343 17.3997C23.3059 16.2566 23.9768 14.6958 24 13.059Z" fill="black"/>
</svg>
