<svg xmlns="http://www.w3.org/2000/svg" xmlns:xlink="http://www.w3.org/1999/xlink" width="76.265" height="76.265" viewBox="0 0 76.265 76.265">
  <defs>
    <clipPath id="clip-path">
      <rect id="Rectangle_150" data-name="Rectangle 150" width="76.264" height="76.264" fill="none"/>
    </clipPath>
  </defs>
  <g id="Group_141" data-name="Group 141" transform="translate(0 76.265) rotate(-90)">
    <g id="Group_137" data-name="Group 137" transform="translate(0 0)" clip-path="url(#clip-path)">
      <path id="Path_1125" data-name="Path 1125" d="M33.218,0a33.48,33.48,0,0,0,.253,66.959h.27A33.48,33.48,0,0,0,33.491,0Z" transform="translate(4.653 4.652)" fill="#e42622" stroke="#fff" stroke-width="2"/>
      <path id="Path_1126" data-name="Path 1126" d="M33.854,0h-.275a33.843,33.843,0,0,0,.256,67.685H34.1A33.843,33.843,0,0,0,33.854,0m-.271.725h.271a33.207,33.207,0,0,1,33.1,32.862A33.16,33.16,0,0,1,34.1,66.959h-.267A33.118,33.118,0,0,1,33.583.725" transform="translate(4.29 4.29)" fill="#fff"/>
      <path id="Path_1127" data-name="Path 1127" d="M29.27,15.2c-.049.076-.278.167-.195.306-.062.132.042.306-.077.424.648.841,1.795-.085,2.635-.023.307.9-.847,1.5-.485,2.42.542.195,1.106-.522,1.6-.252.361.445-.591.592-.194,1.252.125.208.417-.014.521.159.5.835-.528,1.169-.11,1.864.313.52,1.049.409,1.5.139L20.172,35.93a3.52,3.52,0,0,1-2.309,1.019,3.52,3.52,0,0,1-2.31-1.019L.049,20.266A.277.277,0,0,1,0,20.188a8.676,8.676,0,0,0,1.485,1.3c.451.272,1.188.383,1.5-.137.418-.7-.611-1.03-.11-1.864.1-.173.4.049.521-.159.4-.66-.556-.807-.194-1.252.494-.27,1.057.446,1.6.252.362-.917-.792-1.516-.486-2.42.841-.062,1.988.863,2.635.023-.118-.119-.014-.292-.077-.424.084-.139-.146-.23-.194-.306a1.108,1.108,0,0,1-.139-.436l6.715,6.784V.1a.8.8,0,0,1,.006-.1c.033.09.069.18.1.271a8,8,0,0,1,1.076-.1,1.007,1.007,0,0,1,.929.489h.2c.392,0,.2-.44.538-.538,1.174.44,1.272,1.859,2.2,2.544.636-.1.538-1.174.734-1.663.44.049.881.392,1.272.392A.725.725,0,0,0,20.9,1c.69.184.818.844,1.563.922V21.547l6.989-7.058a2,2,0,0,1-.183.711M11.9,31.136l-.112.1c.035.033.067.09.1.092a.131.131,0,0,0,.092-.093c0-.036-.056-.072-.083-.1m2.392-7.752.086-.179c-.05-.011-.109-.044-.148-.028s-.047.082-.07.126l.132.082m.2-17.742-.021.059.067-.012Zm.367,11.978a.438.438,0,0,0-.525-.284,2.756,2.756,0,0,0-.493.311,4.912,4.912,0,0,0,.252.459c.157.227.31.284.472.2a.57.57,0,0,0,.294-.688m3.793-.82.024.07c.026,0,.06.009.075,0s.016-.047.023-.072l-.122,0m.4,16.134a5.012,5.012,0,0,0-.476-.387,3.663,3.663,0,0,0-1.738,1.334,1.209,1.209,0,0,1,.983.469c.2.272.448.272.731.07a3.38,3.38,0,0,0,.506-.435.742.742,0,0,0-.006-1.052m1.881-10.311.031.035.016-.043Zm2.617,3.787a1.2,1.2,0,0,0-.179.133c.046.043.106.13.136.12.061-.019.107-.089.158-.137-.051-.053-.1-.123-.115-.117m4.621-1.848c-.008,0-.024.054-.016.061a.706.706,0,0,0,.1.066c.012-.04.023-.08.035-.12a.71.71,0,0,0-.12-.008" transform="translate(20.13 18.335)"/>
      <path id="Path_1128" data-name="Path 1128" d="M29.27,15.2c-.049.076-.278.167-.195.306-.062.132.042.306-.077.424.648.841,1.795-.085,2.635-.023.307.9-.847,1.5-.485,2.42.542.195,1.106-.522,1.6-.252.361.445-.591.592-.194,1.252.125.208.417-.014.521.159.5.835-.528,1.169-.11,1.864.313.52,1.049.409,1.5.139L20.172,35.93a3.52,3.52,0,0,1-2.309,1.019,3.52,3.52,0,0,1-2.31-1.019L.049,20.266A.277.277,0,0,1,0,20.188a8.677,8.677,0,0,0,1.485,1.3c.451.272,1.188.383,1.5-.137.418-.7-.611-1.03-.11-1.864.1-.173.4.049.521-.159.4-.66-.556-.807-.194-1.252.494-.27,1.057.446,1.6.252.362-.917-.792-1.516-.486-2.42.841-.062,1.988.863,2.635.023-.118-.119-.014-.292-.076-.424.083-.139-.146-.23-.195-.306a1.108,1.108,0,0,1-.139-.436l6.715,6.784V.1a.8.8,0,0,1,.006-.1c.033.09.069.18.1.271a7.994,7.994,0,0,1,1.076-.1,1.007,1.007,0,0,1,.929.489h.2c.392,0,.2-.44.538-.538,1.174.44,1.272,1.859,2.2,2.544.636-.1.538-1.174.734-1.663.44.049.881.392,1.272.392A.725.725,0,0,0,20.9,1c.69.184.818.844,1.563.922V21.547l6.989-7.058a2,2,0,0,1-.183.711M11.9,31.136l-.112.1c.035.033.068.09.1.092a.129.129,0,0,0,.092-.093c0-.036-.056-.072-.083-.1m2.392-7.752.086-.179c-.05-.011-.109-.044-.148-.028s-.047.082-.07.126l.132.082m.2-17.742-.021.059.067-.012Zm.367,11.978a.438.438,0,0,0-.525-.284,2.756,2.756,0,0,0-.493.311,4.911,4.911,0,0,0,.252.459c.157.227.31.284.472.2a.57.57,0,0,0,.294-.688m3.793-.82.024.07c.026,0,.06.009.075,0s.016-.047.023-.072l-.122,0m.4,16.134a5.012,5.012,0,0,0-.476-.387,3.663,3.663,0,0,0-1.738,1.334,1.209,1.209,0,0,1,.983.469c.2.272.448.272.731.07a3.38,3.38,0,0,0,.506-.435.742.742,0,0,0-.006-1.052m1.881-10.311.031.035.016-.043Zm2.617,3.787a1.2,1.2,0,0,0-.179.133c.046.043.106.13.136.12.061-.019.107-.089.158-.137-.051-.053-.1-.123-.115-.117m4.621-1.848c-.008,0-.024.054-.016.061a.706.706,0,0,0,.1.066c.012-.04.023-.08.035-.12a.71.71,0,0,0-.12-.008" transform="translate(21.668 20.98)" fill="#fff"/>
    </g>
  </g>
</svg>
